<svg width="562" height="194" viewBox="0 0 562 194" fill="none" xmlns="http://www.w3.org/2000/svg">
<path d="M279.896 104.6L258.648 103.96L242.392 104.344C241.624 106.136 240.771 108.397 239.832 111.128C238.979 113.859 237.827 117.059 236.376 120.728C234.925 124.312 233.261 127.939 231.384 131.608C227.203 139.715 223.192 143.768 219.352 143.768C216.024 143.768 214.36 141.891 214.36 138.136C214.36 135.747 216.707 132.248 221.4 127.64C223.363 125.848 225.581 122.904 228.056 118.808C230.616 114.712 232.835 109.976 234.712 104.6H230.104C228.739 104.6 227.544 104.216 226.52 103.448C225.581 102.595 225.112 101.443 225.112 99.992C225.112 98.5413 225.624 97.3467 226.648 96.408C227.672 95.4693 228.781 95 229.976 95L238.936 95.128C246.189 79 253.059 67.864 259.544 61.72C256.216 61.72 251.181 62.0613 244.44 62.744C237.699 63.3413 233.603 63.64 232.152 63.64C230.787 63.64 229.592 63.256 228.568 62.488C227.544 61.6347 227.032 60.4827 227.032 59.032C227.032 57.496 227.544 56.2587 228.568 55.32C229.677 54.3813 230.872 53.912 232.152 53.912L260.056 54.68L290.392 53.912C291.928 53.912 293.165 54.3813 294.104 55.32C295.043 56.2587 295.512 57.4533 295.512 58.904C295.512 62.0613 293.763 63.64 290.264 63.64H287.192C287.192 77.2933 287.747 89.624 288.856 100.632C289.965 111.64 291.075 120.131 292.184 126.104C293.293 132.077 293.848 135.875 293.848 137.496C293.848 139.032 293.336 140.483 292.312 141.848C291.373 143.128 290.051 143.768 288.344 143.768C286.723 143.768 285.315 143.171 284.12 141.976C282.925 140.781 282.285 139.075 282.2 136.856L279.896 104.6ZM277.592 62.104L274.392 61.976C264.749 62.9147 255.363 74.008 246.232 95.256C253.571 95.4267 258.093 95.512 259.8 95.512C261.507 95.512 267.992 95.3413 279.256 95C278.147 76.1413 277.592 65.176 277.592 62.104ZM314.803 53.912L340.659 54.68L366.515 53.912C367.88 53.912 369.075 54.3813 370.099 55.32C371.208 56.1733 371.763 57.368 371.763 58.904C371.763 60.44 371.208 61.6773 370.099 62.616C369.075 63.4693 367.88 63.896 366.515 63.896L340.659 63.128C338.44 63.128 334.856 63.2133 329.907 63.384C329.907 64.408 329.822 66.2427 329.651 68.888C329.139 76.824 328.883 84.248 328.883 91.16C333.32 91.5013 337.459 91.672 341.299 91.672C345.224 91.672 349.192 91.544 353.203 91.288C357.299 91.032 359.774 90.904 360.627 90.904C361.566 90.904 362.462 91.3307 363.315 92.184C364.168 93.0373 364.595 94.1467 364.595 95.512C364.595 96.8773 364.168 98.0293 363.315 98.968C362.462 99.8213 361.352 100.248 359.987 100.248L342.195 99.608C337.758 99.608 333.32 99.7787 328.883 100.12C328.883 110.531 329.054 118.68 329.395 124.568C329.822 130.456 330.035 133.784 330.035 134.552L368.179 133.784C369.544 133.784 370.739 134.253 371.763 135.192C372.872 136.045 373.427 137.24 373.427 138.776C373.427 140.312 372.872 141.549 371.763 142.488C370.739 143.341 369.544 143.768 368.179 143.768L343.603 143C340.19 143 336.136 143.128 331.443 143.384C326.75 143.64 324.232 143.768 323.891 143.768C322.099 143.768 320.606 143.085 319.411 141.72C318.302 140.355 317.747 138.989 317.747 137.624C317.747 136.259 317.918 131.523 318.259 123.416C318.686 115.309 318.899 107.501 318.899 99.992C318.899 92.3973 318.515 80.3653 317.747 63.896H314.803C313.438 63.896 312.2 63.4693 311.091 62.616C310.067 61.6773 309.555 60.44 309.555 58.904C309.555 57.368 310.067 56.1733 311.091 55.32C312.2 54.3813 313.438 53.912 314.803 53.912ZM448.644 125.592L448.772 122.136C448.772 119.491 448.559 116.547 448.132 113.304C447.791 110.061 447.62 107.8 447.62 106.52C447.62 105.155 448.175 103.832 449.284 102.552C450.479 101.187 451.972 100.504 453.764 100.504C455.556 100.504 457.007 101.187 458.116 102.552C459.311 103.832 459.908 105.155 459.908 106.52C459.908 107.8 459.695 110.061 459.268 113.304C458.927 116.547 458.756 119.491 458.756 122.136C458.756 124.781 458.927 127.725 459.268 130.968C459.695 134.211 459.908 136.515 459.908 137.88C459.908 139.16 459.311 140.483 458.116 141.848C457.007 143.128 455.556 143.768 453.764 143.768C451.972 143.768 450.479 143.128 449.284 141.848C448.175 140.483 447.62 138.947 447.62 137.24V134.552C439.855 140.696 431.62 143.768 422.916 143.768C411.823 143.768 402.479 139.8 394.884 131.864C387.375 123.843 383.62 114.157 383.62 102.808C383.62 88.6427 387.844 76.952 396.292 67.736C404.825 58.52 415.663 53.912 428.804 53.912C436.399 53.912 443.353 55.4053 449.668 58.392C456.068 61.3787 459.268 64.8347 459.268 68.76C459.268 70.552 458.671 72.0453 457.476 73.24C456.367 74.4347 455.001 75.032 453.38 75.032C451.759 75.032 450.137 74.392 448.516 73.112C446.895 71.832 445.316 70.424 443.78 68.888C442.329 67.2667 439.983 65.816 436.74 64.536C433.583 63.256 429.828 62.616 425.476 62.616C415.663 62.616 407.983 65.7307 402.436 71.96C396.889 78.1893 394.116 86.424 394.116 96.664C394.116 106.904 397.145 115.864 403.204 123.544C409.348 131.224 417.327 135.064 427.14 135.064C434.564 135.064 441.732 131.907 448.644 125.592ZM486.968 60.824C486.968 61.08 486.755 65.0053 486.328 72.6C485.987 80.1093 485.816 88.4293 485.816 97.56C485.816 106.691 485.987 115.309 486.328 123.416C486.755 131.523 486.968 136.259 486.968 137.624C486.968 138.989 486.371 140.355 485.176 141.72C484.067 143.085 482.616 143.768 480.824 143.768C479.032 143.768 477.539 143.085 476.344 141.72C475.235 140.355 474.68 138.989 474.68 137.624C474.68 136.259 474.851 131.523 475.192 123.416C475.619 115.309 475.832 106.691 475.832 97.56C475.832 88.4293 475.619 80.1093 475.192 72.6C474.851 65.0053 474.68 61.08 474.68 60.824C474.68 59.032 475.235 57.4533 476.344 56.088C477.539 54.6373 479.032 53.912 480.824 53.912C482.616 53.912 484.067 54.6373 485.176 56.088C486.371 57.4533 486.968 59.032 486.968 60.824ZM538.785 67.096C537.676 65.7307 535.969 64.4933 533.665 63.384C531.446 62.1893 528.716 61.592 525.473 61.592C522.23 61.592 519.244 62.7867 516.513 65.176C513.868 67.5653 512.545 70.552 512.545 74.136C512.545 77.6347 514.081 80.536 517.153 82.84C520.31 85.144 524.065 86.936 528.417 88.216C532.854 89.496 537.249 90.9467 541.601 92.568C546.038 94.104 549.793 96.664 552.865 100.248C556.022 103.747 557.601 108.269 557.601 113.816C557.601 121.837 554.23 128.835 547.489 134.808C540.833 140.781 532.428 143.768 522.273 143.768C515.532 143.768 510.07 142.104 505.889 138.776C501.793 135.363 499.745 131.821 499.745 128.152C499.745 126.189 500.3 124.611 501.409 123.416C502.518 122.136 503.884 121.496 505.505 121.496C507.212 121.496 508.662 122.008 509.857 123.032C511.052 123.971 512.161 125.165 513.185 126.616C514.294 128.067 515.532 129.517 516.897 130.968C519.969 134.381 524.278 136.088 529.825 136.088C535.457 136.088 539.98 134.467 543.393 131.224C546.806 127.981 548.513 123.672 548.513 118.296C548.513 114.285 546.934 111.043 543.777 108.568C540.62 106.008 536.78 104.045 532.257 102.68C527.82 101.229 523.34 99.736 518.817 98.2C514.38 96.664 510.582 94.36 507.425 91.288C504.268 88.1307 502.689 84.248 502.689 79.64C502.689 74.9467 503.756 70.8933 505.889 67.48C508.108 63.9813 510.838 61.2933 514.081 59.416C520.566 55.7467 526.668 53.912 532.385 53.912C538.188 53.912 543.265 55.1493 547.617 57.624C551.969 60.0987 554.145 63.0853 554.145 66.584C554.145 68.376 553.633 69.8267 552.609 70.936C551.585 72.0453 550.134 72.6 548.257 72.6C546.38 72.6 544.588 72.0453 542.881 70.936C541.26 69.7413 539.894 68.4613 538.785 67.096Z" fill="url(#paint0_linear_989_37)"/>
<path d="M32.0078 63.6627L71.2716 80.3072L96.8785 68.3573L108.188 34.0015C67.2172 29.9044 40.33 41.1145 32.0078 47.2317V63.6627Z" fill="#1EB5B0"/>
<path d="M53.3481 156.036C30.1312 136.916 32.0093 84.7635 32.0091 69.8262L67.859 84.7635L75.5154 117.839L53.3481 156.036Z" fill="#1E478B"/>
<path d="M163.227 73.2418V73.2402L123.973 93.7257L116.511 124.241L137.342 157.743C163.226 136.404 163.226 95.8615 163.227 73.2418Z" fill="#4CB1CC"/>
<path d="M162.818 67.6917V49.7669C149.502 41.7434 125.119 36.6078 114.591 35.043L103.068 71.3193L121.633 89.4575L162.818 67.6917Z" fill="#10F7CD"/>
<path d="M132.516 163.291L98.3737 188.898L58.043 160.731L80.6623 123.174L111.604 128.722L132.516 163.291Z" fill="#212382"/>
<path d="M98.8006 75.8008L74.6875 86.0435L80.449 115.918L109.684 120.613L116.939 92.872L98.8006 75.8008Z" fill="#207D9C"/>
<path d="M189.064 52.7549C192.364 52.7549 195.039 55.4297 195.039 58.7295C195.039 62.0294 192.364 64.7041 189.064 64.7041C187.635 64.7041 186.323 64.2017 185.295 63.3643L165.164 73.2402V66.8389L183.132 58.0244C183.481 55.057 186.003 52.755 189.064 52.7549Z" fill="#4CB1CC"/>
<path d="M116.695 10.9574C115.671 9.63193 115.206 7.88615 115.565 6.11584C116.221 2.88177 119.374 0.791995 122.608 1.44765C125.842 2.10339 127.932 5.25623 127.277 8.49024C126.76 11.0384 124.693 12.8758 122.258 13.2201L115.307 33.0199L109.033 31.748L116.695 10.9574Z" fill="#10F7CD"/>
<path d="M146.181 182.619C145.483 184.142 145.426 185.947 146.176 187.591C147.547 190.592 151.092 191.914 154.093 190.543C157.095 189.172 158.417 185.627 157.046 182.626C155.955 180.236 153.485 178.912 151.008 179.163L138.553 160.164L134.009 164.104L146.181 182.619Z" fill="#212382"/>
<path d="M44.0762 181.175C44.7733 182.698 44.8299 184.503 44.0796 186.146C42.7087 189.148 39.1644 190.47 36.1628 189.099C33.1612 187.728 31.8395 184.184 33.2104 181.182C34.3021 178.792 36.7717 177.468 39.2484 177.719L51.704 158.72L56.2465 162.659L44.0762 181.175Z" fill="#1E478B"/>
<path d="M5.97461 48.4863C2.67486 48.4863 0.000186372 51.1612 0 54.4609C0 57.7608 2.67475 60.4365 5.97461 60.4365C7.40448 60.4365 8.7167 59.9335 9.74512 59.0957L29.875 68.9717V62.5703L11.9072 53.7549C11.5577 50.7881 9.03536 48.4864 5.97461 48.4863Z" fill="#1EB5B0"/>
<defs>
<linearGradient id="paint0_linear_989_37" x1="215" y1="86.984" x2="561.207" y2="114.482" gradientUnits="userSpaceOnUse">
<stop stop-color="#1EB5B0"/>
<stop offset="1" stop-color="#212382"/>
</linearGradient>
</defs>
</svg>
